<?xml version="1.0" encoding="UTF-8" standalone="no"?>
<svg
   xmlns:dc="http://purl.org/dc/elements/1.1/"
   xmlns:cc="http://creativecommons.org/ns#"
   xmlns:rdf="http://www.w3.org/1999/02/22-rdf-syntax-ns#"
   xmlns:svg="http://www.w3.org/2000/svg"
   xmlns="http://www.w3.org/2000/svg"
   xmlns:sodipodi="http://sodipodi.sourceforge.net/DTD/sodipodi-0.dtd"
   xmlns:inkscape="http://www.inkscape.org/namespaces/inkscape"
   version="1.1"
   id="svg2"
   xml:space="preserve"
   width="666.12"
   height="98.013336"
   viewBox="0 0 666.12 98.013336"
   sodipodi:docname="hellosign-seeklogo.com.eps"><metadata
     id="metadata8"><rdf:RDF><cc:Work
         rdf:about=""><dc:format>image/svg+xml</dc:format><dc:type
           rdf:resource="http://purl.org/dc/dcmitype/StillImage" /></cc:Work></rdf:RDF></metadata><defs
     id="defs6" /><sodipodi:namedview
     pagecolor="#ffffff"
     bordercolor="#666666"
     borderopacity="1"
     objecttolerance="10"
     gridtolerance="10"
     guidetolerance="10"
     inkscape:pageopacity="0"
     inkscape:pageshadow="2"
     inkscape:window-width="640"
     inkscape:window-height="480"
     id="namedview4" /><g
     id="g10"
     inkscape:groupmode="layer"
     inkscape:label="ink_ext_XXXXXX"
     transform="matrix(1.3333333,0,0,-1.3333333,0,98.013333)"><g
       id="g12"
       transform="scale(0.1)"><path
         d="M 229.375,613.594 377.227,396.012 538.266,613.594 Z M 373.23,186.016 0,735.074 h 779.23 l -406,-549.058"
         style="fill:#49bbeb;fill-opacity:1;fill-rule:nonzero;stroke:none"
         id="path14" /><path
         d="M 119.684,121.484 H 663.945 V 0 H 119.684 v 121.484"
         style="fill:#49bbeb;fill-opacity:1;fill-rule:nonzero;stroke:none"
         id="path16" /><path
         d="M 1250.37,121.68 V 318.691 H 1061.35 V 121.68 H 947.465 v 491.117 h 113.885 v -191.41 h 189.02 v 191.41 h 113.88 V 121.68 h -113.88"
         style="fill:#363739;fill-opacity:1;fill-rule:nonzero;stroke:none"
         id="path18" /><path
         d="m 1504.71,121.68 v 491.117 h 310.9 V 508.301 H 1618.6 v -86.914 h 179.82 V 321.484 H 1618.6 v -95.898 h 197.01 V 121.68 h -310.9"
         style="fill:#363739;fill-opacity:1;fill-rule:nonzero;stroke:none"
         id="path20" /><path
         d="m 1949.47,121.68 v 491.117 h 113.89 V 225.586 h 197.01 V 121.68 h -310.9"
         style="fill:#363739;fill-opacity:1;fill-rule:nonzero;stroke:none"
         id="path22" /><path
         d="m 2359.47,121.68 v 491.117 h 113.88 V 225.586 h 197.01 V 121.68 h -310.89"
         style="fill:#363739;fill-opacity:1;fill-rule:nonzero;stroke:none"
         id="path24" /><path
         d="m 2987.24,518.887 c -77.71,0 -130.07,-63.735 -130.07,-152.047 0,-88.317 52.36,-152.055 130.07,-152.055 77.73,0 130.08,64.336 130.08,152.055 0,87.711 -52.35,152.246 -130.08,152.246 z m -1.99,-405.391 c -152.05,0 -249.36,109.285 -249.36,253.344 0,144.058 101.9,254.348 254.15,254.348 152.25,0 249.35,-109.293 249.35,-253.946 5.3,-134.859 -99.72,-248.472 -234.57,-253.765 -6.52,-0.254 -13.05,-0.254 -19.57,0.019"
         style="fill:#363739;fill-opacity:1;fill-rule:nonzero;stroke:none"
         id="path26" /><path
         d="m 3484.96,113.496 c -58.64,1.824 -115.73,19.199 -165.44,50.352 l 31.57,103.086 c 39.94,-29.414 87.87,-45.996 137.46,-47.547 39.96,0 55.74,18.777 55.74,42.957 0,24.179 -12.79,42.957 -87.91,73.125 -86.52,34.765 -116.68,85.117 -116.68,144.058 0,71.735 58.34,141.457 172.82,141.457 48.42,-0.129 95.91,-13.312 137.48,-38.156 l -28.99,-101.5 c -32.03,22.735 -69.55,36.527 -108.69,39.961 -41.55,0 -58.34,-19.98 -58.34,-39.961 0,-32.168 24.78,-42.961 86.52,-68.937 91.7,-38.957 119.88,-83.114 119.88,-146.051 -0.6,-78.324 -57.54,-152.844 -175.42,-152.844"
         style="fill:#363739;fill-opacity:1;fill-rule:nonzero;stroke:none"
         id="path28" /><path
         d="m 3776.26,121.68 v 491.117 h 113.89 V 121.68 h -113.89"
         style="fill:#363739;fill-opacity:1;fill-rule:nonzero;stroke:none"
         id="path30" /><path
         d="M 4448.39,397.605 V 163.047 c -56.29,-33.418 -120.75,-50.567 -186.21,-49.551 -144.06,0 -257.95,103.086 -257.95,253.344 0,150.25 115.09,254.348 263.74,254.348 57.62,-0.008 114.3,-14.504 164.85,-42.161 l -47.56,-91.707 c -33.9,17.836 -71.58,27.293 -109.89,27.571 -97.9,0 -150.05,-60.938 -150.05,-147.45 0,-93.906 62.94,-152.05 143.45,-152.05 24.87,-1.914 49.8,2.695 72.33,13.379 v 72.734 h -98.5 v 96.101 h 205.79"
         style="fill:#363739;fill-opacity:1;fill-rule:nonzero;stroke:none"
         id="path32" /><path
         d="M 4983.67,112.285 4687.36,378.227 V 121.68 h -113.09 v 497.91 l 15.38,2.797 292.32,-264.145 v 254.555 h 113.88 V 113.293 l -12.18,-1.008"
         style="fill:#363739;fill-opacity:1;fill-rule:nonzero;stroke:none"
         id="path34" /></g></g></svg>
