<svg xmlns="http://www.w3.org/2000/svg" xmlns:xlink="http://www.w3.org/1999/xlink" viewBox="0 0 738 347" width="738" height="347"><path d="M 324.500,80.219 C 319.000,79.219 318.967,78.219 313.500,78.219" stroke-width="3.009" stroke="black" fill="none" stroke-linecap="round"></path><path d="M 313.500,78.219 C 309.467,78.219 309.235,78.662 305.500,80.219" stroke-width="3.515" stroke="black" fill="none" stroke-linecap="round"></path><path d="M 305.500,80.219 C 303.235,81.162 302.454,81.038 301.500,83.219" stroke-width="4.092" stroke="black" fill="none" stroke-linecap="round"></path><path d="M 301.500,83.219 C 298.954,89.038 299.595,89.646 298.500,96.219" stroke-width="3.316" stroke="black" fill="none" stroke-linecap="round"></path><path d="M 298.500,96.219 C 296.595,107.646 297.593,107.826 295.500,119.219" stroke-width="2.599" stroke="black" fill="none" stroke-linecap="round"></path><path d="M 295.500,119.219 C 293.093,132.326 293.562,132.555 289.500,145.219" stroke-width="2.298" stroke="black" fill="none" stroke-linecap="round"></path><path d="M 289.500,145.219 C 285.062,159.055 284.670,159.038 278.500,172.219" stroke-width="2.076" stroke="black" fill="none" stroke-linecap="round"></path><path d="M 278.500,172.219 C 273.670,182.538 273.861,182.815 267.500,192.219" stroke-width="2.240" stroke="black" fill="none" stroke-linecap="round"></path><path d="M 267.500,192.219 C 262.361,199.815 263.245,201.874 255.500,206.219" stroke-width="2.489" stroke="black" fill="none" stroke-linecap="round"></path><path d="M 255.500,206.219 C 242.745,213.374 241.280,212.321 226.500,215.219" stroke-width="2.140" stroke="black" fill="none" stroke-linecap="round"></path><path d="M 226.500,215.219 C 215.780,217.321 215.263,217.531 204.500,216.219" stroke-width="2.399" stroke="black" fill="none" stroke-linecap="round"></path><path d="M 204.500,216.219 C 194.763,215.031 194.050,214.969 185.500,210.219" stroke-width="2.472" stroke="black" fill="none" stroke-linecap="round"></path><path d="M 185.500,210.219 C 176.050,204.969 175.199,204.654 168.500,196.219" stroke-width="2.398" stroke="black" fill="none" stroke-linecap="round"></path><path d="M 168.500,196.219 C 161.699,187.654 161.265,186.663 158.500,176.219" stroke-width="2.420" stroke="black" fill="none" stroke-linecap="round"></path><path d="M 158.500,176.219 C 156.765,169.663 156.490,168.006 159.500,162.219" stroke-width="2.848" stroke="black" fill="none" stroke-linecap="round"></path><path d="M 159.500,162.219 C 162.990,155.506 164.690,155.445 171.500,151.219" stroke-width="2.921" stroke="black" fill="none" stroke-linecap="round"></path><path d="M 171.500,151.219 C 179.190,146.445 179.667,146.037 188.500,144.219" stroke-width="2.823" stroke="black" fill="none" stroke-linecap="round"></path><path d="M 188.500,144.219 C 196.667,142.537 197.087,143.229 205.500,144.219" stroke-width="2.816" stroke="black" fill="none" stroke-linecap="round"></path><path d="M 205.500,144.219 C 222.587,146.229 222.522,147.100 239.500,150.219" stroke-width="2.002" stroke="black" fill="none" stroke-linecap="round"></path><path d="M 239.500,150.219 C 247.022,151.600 246.889,152.735 254.500,153.219" stroke-width="2.589" stroke="black" fill="none" stroke-linecap="round"></path><path d="M 254.500,153.219 C 278.389,154.735 280.348,160.213 302.500,154.219" stroke-width="1.747" stroke="black" fill="none" stroke-linecap="round"></path><path d="M 302.500,154.219 C 322.848,148.713 324.145,144.422 339.500,130.219" stroke-width="2.162" stroke="black" fill="none" stroke-linecap="round"></path><path d="M 339.500,130.219 C 344.145,125.922 341.465,123.772 342.500,117.219" stroke-width="2.771" stroke="black" fill="none" stroke-linecap="round"></path><path d="M 342.500,117.219 C 342.965,114.272 342.857,109.673 342.500,111.219" stroke-width="3.580" stroke="black" fill="none" stroke-linecap="round"></path><path d="M 302.500,106.219 C 302.500,111.219 302.238,111.233 302.500,116.219" stroke-width="5.127" stroke="black" fill="none" stroke-linecap="round"></path><path d="M 302.500,116.219 C 302.738,120.733 301.979,121.037 303.500,125.219" stroke-width="3.875" stroke="black" fill="none" stroke-linecap="round"></path><path d="M 303.500,125.219 C 305.979,132.037 305.403,133.365 310.500,138.219" stroke-width="3.226" stroke="black" fill="none" stroke-linecap="round"></path><path d="M 310.500,138.219 C 315.903,143.365 316.980,143.751 324.500,145.219" stroke-width="2.948" stroke="black" fill="none" stroke-linecap="round"></path><path d="M 324.500,145.219 C 337.480,147.751 338.814,148.694 351.500,146.219" stroke-width="2.292" stroke="black" fill="none" stroke-linecap="round"></path><path d="M 351.500,146.219 C 359.314,144.694 359.437,142.644 365.500,137.219" stroke-width="2.599" stroke="black" fill="none" stroke-linecap="round"></path><path d="M 365.500,137.219 C 368.937,134.144 369.047,128.735 370.500,129.219" stroke-width="3.616" stroke="black" fill="none" stroke-linecap="round"></path><path d="M 370.500,129.219 C 372.047,129.735 369.244,135.209 371.500,139.219" stroke-width="4.449" stroke="black" fill="none" stroke-linecap="round"></path><path d="M 371.500,139.219 C 373.744,143.209 374.875,143.796 379.500,145.219" stroke-width="4.356" stroke="black" fill="none" stroke-linecap="round"></path><path d="M 379.500,145.219 C 387.875,147.796 388.500,146.219 397.500,147.219" stroke-width="3.068" stroke="black" fill="none" stroke-linecap="round"></path><path d="M 397.500,147.219 C 406.500,148.219 406.472,148.717 415.500,149.219" stroke-width="2.819" stroke="black" fill="none" stroke-linecap="round"></path><path d="M 415.500,149.219 C 424.472,149.717 424.539,149.608 433.500,149.219" stroke-width="2.758" stroke="black" fill="none" stroke-linecap="round"></path><path d="M 560.500,83.219 C 558.000,80.219 558.253,79.972 555.500,77.219" stroke-width="3.637" stroke="black" fill="none" stroke-linecap="round"></path><path d="M 555.500,77.219 C 551.753,73.472 552.122,72.530 547.500,70.219" stroke-width="3.453" stroke="black" fill="none" stroke-linecap="round"></path><path d="M 547.500,70.219 C 542.122,67.530 541.545,68.514 535.500,67.219" stroke-width="3.421" stroke="black" fill="none" stroke-linecap="round"></path><path d="M 535.500,67.219 C 527.545,65.514 527.571,64.952 519.500,64.219" stroke-width="3.018" stroke="black" fill="none" stroke-linecap="round"></path><path d="M 519.500,64.219 C 511.071,63.452 510.838,63.028 502.500,64.219" stroke-width="2.871" stroke="black" fill="none" stroke-linecap="round"></path><path d="M 502.500,64.219 C 493.338,65.528 492.552,64.941 484.500,69.219" stroke-width="2.672" stroke="black" fill="none" stroke-linecap="round"></path><path d="M 484.500,69.219 C 476.552,73.441 476.169,74.132 470.500,81.219" stroke-width="2.631" stroke="black" fill="none" stroke-linecap="round"></path><path d="M 470.500,81.219 C 464.169,89.132 464.130,89.725 460.500,99.219" stroke-width="2.509" stroke="black" fill="none" stroke-linecap="round"></path><path d="M 460.500,99.219 C 457.630,106.725 456.281,107.496 457.500,115.219" stroke-width="2.753" stroke="black" fill="none" stroke-linecap="round"></path><path d="M 457.500,115.219 C 459.281,126.496 458.637,129.863 466.500,137.219" stroke-width="2.391" stroke="black" fill="none" stroke-linecap="round"></path><path d="M 466.500,137.219 C 474.137,144.363 477.188,142.401 488.500,144.219" stroke-width="2.328" stroke="black" fill="none" stroke-linecap="round"></path><path d="M 488.500,144.219 C 505.188,146.901 505.486,145.703 522.500,146.219" stroke-width="2.046" stroke="black" fill="none" stroke-linecap="round"></path><path d="M 522.500,146.219 C 538.486,146.703 538.500,146.219 554.500,146.219" stroke-width="1.979" stroke="black" fill="none" stroke-linecap="round"></path><path d="M 554.500,146.219 C 565.000,146.219 565.015,146.546 575.500,146.219" stroke-width="2.327" stroke="black" fill="none" stroke-linecap="round"></path><path d="M 575.500,146.219 C 581.015,146.046 580.991,145.525 586.500,145.219" stroke-width="2.947" stroke="black" fill="none" stroke-linecap="round"></path><path d="M 586.500,145.219 C 589.991,145.025 590.018,144.970 593.500,145.219" stroke-width="3.641" stroke="black" fill="none" stroke-linecap="round"></path><path d="M 593.500,145.219 C 597.018,145.470 597.069,145.427 600.500,146.219" stroke-width="3.867" stroke="black" fill="none" stroke-linecap="round"></path><path d="M 600.500,146.219 C 603.569,146.927 607.626,148.380 606.500,148.219" stroke-width="4.027" stroke="black" fill="none" stroke-linecap="round"></path><path d="M 534.500,128.219 C 529.000,127.219 528.587,125.583 523.500,126.219" stroke-width="4.924" stroke="black" fill="none" stroke-linecap="round"></path><path d="M 523.500,126.219 C 520.587,126.583 520.170,127.714 518.500,130.219" stroke-width="4.960" stroke="black" fill="none" stroke-linecap="round"></path><path d="M 518.500,130.219 C 517.170,132.214 516.360,133.851 517.500,135.219" stroke-width="4.898" stroke="black" fill="none" stroke-linecap="round"></path><path d="M 517.500,135.219 C 518.860,136.851 520.508,136.219 523.500,136.219" stroke-width="4.979" stroke="black" fill="none" stroke-linecap="round"></path><path d="M 523.500,136.219 C 526.008,136.219 525.982,135.219 528.500,135.219" stroke-width="4.904" stroke="black" fill="none" stroke-linecap="round"></path><path d="M 528.500,135.219 C 532.482,135.219 532.518,135.606 536.500,136.219" stroke-width="4.684" stroke="black" fill="none" stroke-linecap="round"></path><path d="M 536.500,136.219 C 539.018,136.606 539.094,137.620 541.500,137.219" stroke-width="5.096" stroke="black" fill="none" stroke-linecap="round"></path><path d="M 541.500,137.219 C 545.094,136.620 545.538,136.440 548.500,134.219" stroke-width="5.135" stroke="black" fill="none" stroke-linecap="round"></path><path d="M 548.500,134.219 C 551.538,131.940 551.110,131.306 553.500,128.219" stroke-width="4.166" stroke="black" fill="none" stroke-linecap="round"></path><path d="M 553.500,128.219 C 563.110,115.806 563.814,116.248 572.500,103.219" stroke-width="2.346" stroke="black" fill="none" stroke-linecap="round"></path><path d="M 572.500,103.219 C 578.814,93.748 578.655,93.514 583.500,83.219" stroke-width="2.326" stroke="black" fill="none" stroke-linecap="round"></path><path d="M 583.500,83.219 C 586.655,76.514 585.793,76.136 588.500,69.219" stroke-width="2.761" stroke="black" fill="none" stroke-linecap="round"></path><path d="M 588.500,69.219 C 590.293,64.636 589.591,62.482 592.500,60.219" stroke-width="3.320" stroke="black" fill="none" stroke-linecap="round"></path><path d="M 592.500,60.219 C 594.091,58.982 595.763,60.323 597.500,62.219" stroke-width="4.387" stroke="black" fill="none" stroke-linecap="round"></path><path d="M 597.500,62.219 C 601.263,66.323 600.710,67.104 603.500,72.219" stroke-width="3.595" stroke="black" fill="none" stroke-linecap="round"></path><path d="M 603.500,72.219 C 606.710,78.104 606.606,78.168 609.500,84.219" stroke-width="3.267" stroke="black" fill="none" stroke-linecap="round"></path><path d="M 609.500,84.219 C 612.106,89.668 611.682,89.896 614.500,95.219" stroke-width="3.223" stroke="black" fill="none" stroke-linecap="round"></path><path d="M 592.500,126.219 C 590.000,127.719 586.472,128.362 587.500,129.219" stroke-width="5.376" stroke="black" fill="none" stroke-linecap="round"></path><path d="M 587.500,129.219 C 589.472,130.862 592.962,130.636 598.500,131.219" stroke-width="4.793" stroke="black" fill="none" stroke-linecap="round"></path><path d="M 598.500,131.219 C 602.462,131.636 602.519,131.484 606.500,131.219" stroke-width="4.126" stroke="black" fill="none" stroke-linecap="round"></path><path d="M 606.500,131.219 C 610.019,130.984 610.014,130.219 613.500,130.219" stroke-width="4.018" stroke="black" fill="none" stroke-linecap="round"></path></svg>